<?xml version="1.0" encoding="utf-8"?>
<!-- Generator: Adobe Illustrator 22.1.0, SVG Export Plug-In . SVG Version: 6.00 Build 0)  -->
<svg version="1.1" id="canvas_xA0_Image_1_" xmlns="http://www.w3.org/2000/svg" xmlns:xlink="http://www.w3.org/1999/xlink"
	 x="0px" y="0px" viewBox="0 0 7.7 7.7" style="enable-background:new 0 0 7.7 7.7;" xml:space="preserve">
<style type="text/css">
	.st0{fill:#FEFEFE;}
	.st1{fill:#C78D3C;}
	.st2{fill:#9F401A;}
	.st3{fill:#852712;}
	.st4{fill:#C47C18;}
	.st5{fill:#EABA18;}
	.st6{fill:#FEFDFB;}
</style>
<g>
	<g>
		<path class="st0" d="M1.2,0.3c1.8,0,3.5,0,5.3,0c0.2,0.2,0.1,0.4,0,0.6C5.6,1.2,4.7,1,3.9,1.1C3,1,2.1,1.2,1.3,0.8
			C1.1,0.7,1.1,0.5,1.2,0.3z"/>
		<path class="st0" d="M0.3,6.5c0-1.8,0-3.5,0-5.3c0.2-0.2,0.4-0.1,0.6,0.1c0.3,1.7,0.3,3.4,0,5.1C0.7,6.6,0.5,6.6,0.3,6.5z"/>
		<path class="st0" d="M7.5,1.2c0,1.8,0,3.5,0,5.3C7.2,6.6,7,6.6,6.9,6.4C6.5,4.7,6.5,3,6.8,1.3C7,1.1,7.2,1.1,7.5,1.2z"/>
		<path class="st0" d="M6.5,7.5c-1.8,0-3.5,0-5.3,0C1.1,7.2,1.1,7,1.3,6.9C2.1,6.5,3,6.7,3.8,6.6c0.9,0.1,1.8-0.2,2.6,0.2
			C6.6,7,6.6,7.2,6.5,7.5z"/>
		<path class="st1" d="M0.7,1.2c-0.2,0-0.3,0-0.5,0c-0.2-0.8,0.1-1.1,1-1c0,0.2,0,0.3,0,0.5C1.1,1,1,1.1,0.7,1.2z"/>
		<path class="st1" d="M7.5,1.2c-0.2,0-0.3,0-0.5,0C6.7,1.1,6.6,1,6.5,0.7c0-0.2,0-0.3,0-0.5C7.3,0.1,7.6,0.4,7.5,1.2z"/>
		<path class="st1" d="M1.2,7c0,0.2,0,0.3,0,0.5c-0.8,0.2-1.1-0.1-1-1c0.2,0,0.3,0,0.5,0C1,6.6,1.1,6.7,1.2,7z"/>
		<path class="st1" d="M6.5,7.5c0-0.2,0-0.3,0-0.5C6.6,6.7,6.7,6.6,7,6.5c0.2,0,0.3,0,0.5,0C7.6,7.3,7.3,7.6,6.5,7.5z"/>
		<path class="st2" d="M1.2,7C0.9,7,0.7,6.8,0.7,6.5c0-1.7,0-3.5,0-5.2c0-0.3,0.2-0.5,0.5-0.5c0.9,0,1.7,0,2.6,0.1
			C4,1,4,1.1,3.8,1.3C3.6,1.5,3.3,1.5,3,1.5C1.5,1.6,1.5,1.7,1.5,3.1c0,0.2,0,0,0,0.1c0,0.8-0.2,1.7,0.1,2.5c0.4,1,1.6,0.1,2.2,0.7
			C4,6.6,4,6.7,3.9,6.9C3,7,2.1,7,1.2,7z"/>
		<path class="st3" d="M3.9,6.9c0-0.1,0-0.3,0-0.4c0.4-0.4,0.9-0.4,1.3-0.3c0.7,0,1-0.2,1-1c0-0.9,0-1.8,0-2.7c0-0.7-0.3-1-1-1
			c-0.5,0-1,0.1-1.3-0.3c0-0.1,0-0.3,0-0.4c0.9,0,1.7,0,2.6-0.1C6.8,0.7,7,0.9,7,1.2C7,3,7,4.7,7,6.5C7,6.8,6.8,7,6.5,7
			C5.6,7,4.7,7,3.9,6.9z"/>
		<path class="st4" d="M3.9,1.2c2.6,0.1,2.6,0.1,2.6,2.7c0,2.5,0,2.5-2.6,2.6C1.2,6.4,1.2,6.4,1.2,3.8C1.2,1.3,1.2,1.3,3.9,1.2z"/>
		<path class="st5" d="M6.3,4C6.3,6,6.2,6.3,3.6,6.3c-1.9,0-2.3,0-2.2-2.8c0-1.7,0-2.2,2.9-2.1C6.2,1.5,6.3,1.5,6.3,4z"/>
		<path class="st6" d="M2.9,6c0-1.5,0-2.8,0-4.2c1,0.4,1.8,1.1,2.6,1.7C6,3.8,5.8,4,5.5,4.2C4.7,4.8,3.9,5.3,2.9,6z"/>
	</g>
</g>
</svg>
